<mxfile host="app.diagrams.net" modified="2023-03-28T10:26:42.504Z" agent="Mozilla/5.0 (Macintosh; Intel Mac OS X 10_15_7) AppleWebKit/537.36 (KHTML, like Gecko) Chrome/111.0.0.0 Safari/537.36" version="21.1.1" etag="8MmhEML6sz1-1IBDOR-h" type="github">
  <diagram name="Page-1" id="CkYiRbuDCIk19G0yftkI">
    <mxGraphModel>
      <root>
        <mxCell id="0" />
        <mxCell id="1" parent="0" />
      </root>
    </mxGraphModel>
  </diagram>
</mxfile>
